        <svg
          width="55"
          height="47"
          viewBox="0 0 55 47"
          fill="white"
          xmlns="http://www.w3.org/2000/svg"
        >
          <path
            d="M35.6195 6.36855L34.7787 6.99484L34.3392 6.39937L35.4857 5.54532C35.6306 5.43745 35.6768 5.2405 35.5945 5.07962C34.0556 2.0647 30.9208 0 27.3036 0C22.1652 0 18 4.16547 18 9.30364C18 9.68706 18.0524 10.1176 18.1486 10.5855C18.2006 10.8395 18.4928 10.9618 18.711 10.8216L19.7297 10.1666L20.1297 10.7889L18.7209 11.695C18.5785 11.7869 18.5169 11.9629 18.5702 12.1238C19.918 16.1872 22.829 21.4792 27.3036 28C33.5061 18.9614 36.6073 12.7294 36.6073 9.30364C36.6073 8.34788 36.463 7.42572 36.1949 6.5578C36.1194 6.31277 35.8251 6.21507 35.6195 6.36855Z"
            fill="#EF3340"
          />
          <path
            d="M26.2905 26.4251C26.7267 27.1036 27.0823 27.6284 27.3569 27.9991C33.4831 19.1696 36.5463 13.0412 36.5463 9.61354C36.5463 9.34371 36.5326 9.07727 36.5104 8.81299C36.1475 10.2414 35.6348 11.6319 35.0056 12.9591C33.2661 16.627 30.6937 18.9768 27.9542 21.9524C27.5228 22.4211 27.0859 22.863 26.6403 23.2972C25.7973 24.1185 25.6524 25.4328 26.2905 26.4251Z"
            fill="#E53042"
          />
          <path
            d="M33.7178 5.92951C30.8699 7.81822 29.3021 8.98234 29.0142 9.42184C28.8308 9.60708 28.739 9.87954 28.7387 10.2386C28.6693 10.6097 28.4647 10.8855 28.1247 11.0661L26.2785 12.2435C26.2135 12.2333 26.1907 12.2053 26.2107 12.16L27.6982 10.9151C27.7518 10.8714 27.7549 10.8202 27.7071 10.7616C27.6356 10.6735 27.6054 10.749 27.5869 10.7709C27.5749 10.786 27.0552 11.1762 26.0273 11.9421C25.9546 11.9378 25.9309 11.9106 25.9558 11.8613L27.3964 10.5961C27.4624 10.5524 27.4688 10.4981 27.4164 10.4334C27.3758 10.4032 27.3271 10.4183 27.2707 10.479C27.2143 10.5391 26.7236 10.9367 25.7983 11.6712C25.7401 11.6709 25.7139 11.6462 25.7204 11.5972L27.1286 10.2605C27.1856 10.2183 27.1918 10.1696 27.1468 10.1144C27.0796 10.0315 27.0241 10.1095 26.9859 10.135C26.9603 10.1526 26.4792 10.5598 25.5428 11.3565C25.4883 11.3531 25.4642 11.3291 25.4701 11.2841L26.6407 10.0022C27.042 9.58396 27.3878 9.34695 27.6787 9.29024C27.7475 9.2776 28.0079 9.27698 28.0631 9.2887C28.3898 9.35928 28.6376 9.2437 28.763 9.14168C28.8604 9.06278 30.2837 7.71066 33.0327 5.08594"
            fill="white"
          />
          <path
            d="M20.8423 12.0936C21.406 11.5751 23.1428 10.1947 23.635 9.80571C24.1266 9.41736 24.6721 8.81851 25.1563 8.98433C25.6411 9.14984 26.4779 9.22134 27.3933 8.32507C28.3087 7.42941 28.4252 6.65395 28.469 6.37872C28.5053 6.1491 28.4079 6.00917 28.375 5.96911C28.3451 5.92565 28.2381 5.79342 28.0073 5.76414C27.7305 5.72932 26.9538 5.62576 25.8387 6.25574C24.7233 6.88572 24.5584 7.70895 24.5827 8.22058C24.6068 8.7319 23.8803 9.08943 23.3699 9.45312C22.8598 9.81804 21.0503 11.102 20.396 11.4993"
            fill="white"
          />
          <path
            d="M34.5358 6.25439L33.8441 6.77126C34.1107 7.50635 34.2568 8.29875 34.2568 9.12476C34.2568 12.9404 31.1525 16.0447 27.3369 16.0447C24.2693 16.0447 21.663 14.0373 20.7584 11.2681L20.0437 11.7507C21.1221 14.7367 23.9839 16.8769 27.3369 16.8769C31.6115 16.8769 35.089 13.399 35.089 9.12476C35.089 8.11075 34.8911 7.14297 34.5358 6.25439Z"
            fill="white"
          />
          <path
            d="M20.5571 10.5141C20.4653 10.065 20.4169 9.60024 20.4169 9.12467C20.4169 5.30902 23.5212 2.20473 27.3368 2.20473C30.0494 2.20473 32.401 3.77444 33.5349 6.05243L34.2241 5.57316C32.9336 3.08097 30.3317 1.37256 27.3368 1.37256C23.0623 1.37256 19.5847 4.8501 19.5847 9.12467C19.5847 9.76821 19.6649 10.3933 19.8134 10.9915L20.5571 10.5141Z"
            fill="white"
          />
          <path
            d="M3.262 35.09V37.078H6.468V38.926H3.262V41.082H6.888V43H0.868V33.172H6.888V35.09H3.262ZM7.96622 39.08C7.96622 38.2773 8.11555 37.5727 8.41422 36.966C8.72222 36.3593 9.13755 35.8927 9.66022 35.566C10.1829 35.2393 10.7662 35.076 11.4102 35.076C11.9609 35.076 12.4416 35.188 12.8522 35.412C13.2722 35.636 13.5942 35.93 13.8182 36.294V35.188H16.2122V43H13.8182V41.894C13.5849 42.258 13.2582 42.552 12.8382 42.776C12.4276 43 11.9469 43.112 11.3962 43.112C10.7616 43.112 10.1829 42.9487 9.66022 42.622C9.13755 42.286 8.72222 41.8147 8.41422 41.208C8.11555 40.592 7.96622 39.8827 7.96622 39.08ZM13.8182 39.094C13.8182 38.4967 13.6502 38.0253 13.3142 37.68C12.9876 37.3347 12.5862 37.162 12.1102 37.162C11.6342 37.162 11.2282 37.3347 10.8922 37.68C10.5656 38.016 10.4022 38.4827 10.4022 39.08C10.4022 39.6773 10.5656 40.1533 10.8922 40.508C11.2282 40.8533 11.6342 41.026 12.1102 41.026C12.5862 41.026 12.9876 40.8533 13.3142 40.508C13.6502 40.1627 13.8182 39.6913 13.8182 39.094ZM22.2982 40.97V43H21.0802C20.2122 43 19.5355 42.79 19.0502 42.37C18.5648 41.9407 18.3222 41.2453 18.3222 40.284V37.176H17.3702V35.188H18.3222V33.284H20.7162V35.188H22.2842V37.176H20.7162V40.312C20.7162 40.5453 20.7722 40.7133 20.8842 40.816C20.9962 40.9187 21.1828 40.97 21.4442 40.97H22.2982ZM26.8097 43.112C26.1283 43.112 25.5217 42.9953 24.9897 42.762C24.4577 42.5287 24.0377 42.2113 23.7297 41.81C23.4217 41.3993 23.249 40.942 23.2117 40.438H25.5777C25.6057 40.7087 25.7317 40.928 25.9557 41.096C26.1797 41.264 26.455 41.348 26.7817 41.348C27.0803 41.348 27.309 41.292 27.4677 41.18C27.6357 41.0587 27.7197 40.9047 27.7197 40.718C27.7197 40.494 27.603 40.3307 27.3697 40.228C27.1363 40.116 26.7583 39.9947 26.2357 39.864C25.6757 39.7333 25.209 39.598 24.8357 39.458C24.4623 39.3087 24.1403 39.08 23.8697 38.772C23.599 38.4547 23.4637 38.03 23.4637 37.498C23.4637 37.05 23.585 36.644 23.8277 36.28C24.0797 35.9067 24.4437 35.6127 24.9197 35.398C25.405 35.1833 25.979 35.076 26.6417 35.076C27.6217 35.076 28.3917 35.3187 28.9517 35.804C29.521 36.2893 29.8477 36.9333 29.9317 37.736H27.7197C27.6823 37.4653 27.561 37.2507 27.3557 37.092C27.1597 36.9333 26.8983 36.854 26.5717 36.854C26.2917 36.854 26.077 36.91 25.9277 37.022C25.7783 37.1247 25.7037 37.2693 25.7037 37.456C25.7037 37.68 25.8203 37.848 26.0537 37.96C26.2963 38.072 26.6697 38.184 27.1737 38.296C27.7523 38.4453 28.2237 38.5947 28.5877 38.744C28.9517 38.884 29.269 39.1173 29.5397 39.444C29.8197 39.7613 29.9643 40.1907 29.9737 40.732C29.9737 41.1893 29.843 41.6 29.5817 41.964C29.3297 42.3187 28.961 42.5987 28.4757 42.804C27.9997 43.0093 27.4443 43.112 26.8097 43.112ZM33.8323 35.09V37.078H37.0383V38.926H33.8323V41.082H37.4583V43H31.4383V33.172H37.4583V35.09H33.8323ZM41.2525 41.026H44.6405V43H38.5785V41.096L41.8265 37.162H38.6065V35.188H44.5705V37.092L41.2525 41.026ZM53.9378 35.188L49.0378 46.71H46.4618L48.2538 42.734L45.0758 35.188H47.7498L49.5558 40.074L51.3478 35.188H53.9378Z"
            fill="#EF3340"
          />
        </svg>