<svg width="3034" height="774" viewBox="0 0 3034 774" fill="none" xmlns="http://www.w3.org/2000/svg">
<path d="M344.6 0.399982H0.600002V562H344.6V452.4H137.4V329.2H320.6V223.6H137.4V110H344.6V0.399982ZM406.213 338C406.213 478.8 493.413 568.4 602.213 568.4C668.613 568.4 715.813 538 740.613 498.8V562H877.413V115.6H740.613V178.8C716.613 139.6 669.413 109.2 603.013 109.2C493.413 109.2 406.213 197.2 406.213 338ZM740.613 338.8C740.613 410 695.013 449.2 643.013 449.2C591.813 449.2 545.413 409.2 545.413 338C545.413 266.8 591.813 228.4 643.013 228.4C695.013 228.4 740.613 267.6 740.613 338.8ZM997.981 406.8C997.981 522.8 1062.78 562 1155.58 562H1225.18V446H1176.38C1145.98 446 1134.78 434.8 1134.78 408.4V229.2H1224.38V115.6H1134.78V6.8H997.981V115.6H943.581V229.2H997.981V406.8ZM1663.78 432.4C1661.38 266 1419.78 316.4 1419.78 245.2C1419.78 223.6 1437.38 210.8 1469.38 210.8C1507.78 210.8 1530.98 230.8 1534.98 261.2H1661.38C1652.58 173.2 1588.58 109.2 1473.38 109.2C1356.58 109.2 1291.78 171.6 1291.78 247.6C1291.78 411.6 1534.98 359.6 1534.98 431.6C1534.98 451.6 1516.58 467.6 1481.38 467.6C1443.78 467.6 1415.78 446.8 1412.58 415.6H1277.38C1283.78 502 1363.78 568.4 1482.98 568.4C1594.98 568.4 1663.78 510 1663.78 432.4ZM2091.48 0.399982H1747.48V562H2091.48V452.4H1884.28V329.2H2067.48V223.6H1884.28V110H2091.48V0.399982ZM2497.89 115.6H2157.09V228.4H2341.09L2155.49 453.2V562H2501.89V449.2H2308.29L2497.89 224.4V115.6ZM2782.76 394.8L2679.56 115.6H2526.76L2708.36 546.8L2605.96 774H2753.16L3033.16 115.6H2885.16L2782.76 394.8Z" fill="white"/>
<path d="M344.6 0.399994H345.6V-0.600006H344.6V0.399994ZM0.600002 0.399994V-0.600006H-0.399998V0.399994H0.600002ZM0.600002 562H-0.399998V563H0.600002V562ZM344.6 562V563H345.6V562H344.6ZM344.6 452.4H345.6V451.4H344.6V452.4ZM137.4 452.4H136.4V453.4H137.4V452.4ZM137.4 329.2V328.2H136.4V329.2H137.4ZM320.6 329.2V330.2H321.6V329.2H320.6ZM320.6 223.6H321.6V222.6H320.6V223.6ZM137.4 223.6H136.4V224.6H137.4V223.6ZM137.4 110V109H136.4V110H137.4ZM344.6 110V111H345.6V110H344.6ZM344.6 -0.600006H0.600002V1.39999H344.6V-0.600006ZM-0.399998 0.399994V562H1.6V0.399994H-0.399998ZM0.600002 563H344.6V561H0.600002V563ZM345.6 562V452.4H343.6V562H345.6ZM344.6 451.4H137.4V453.4H344.6V451.4ZM138.4 452.4V329.2H136.4V452.4H138.4ZM137.4 330.2H320.6V328.2H137.4V330.2ZM321.6 329.2V223.6H319.6V329.2H321.6ZM320.6 222.6H137.4V224.6H320.6V222.6ZM138.4 223.6V110H136.4V223.6H138.4ZM137.4 111H344.6V109H137.4V111ZM345.6 110V0.399994H343.6V110H345.6ZM740.612 498.8H741.612V495.349L739.767 498.265L740.612 498.8ZM740.612 562H739.612V563H740.612V562ZM877.413 562V563H878.413V562H877.413ZM877.413 115.6H878.413V114.6H877.413V115.6ZM740.612 115.6V114.6H739.612V115.6H740.612ZM740.612 178.8L739.76 179.322L741.612 182.348V178.8H740.612ZM405.212 338C405.212 479.234 492.749 569.4 602.213 569.4V567.4C494.076 567.4 407.212 478.366 407.212 338H405.212ZM602.213 569.4C668.941 569.4 716.467 538.836 741.458 499.335L739.767 498.265C715.158 537.164 668.284 567.4 602.213 567.4V569.4ZM739.612 498.8V562H741.612V498.8H739.612ZM740.612 563H877.413V561H740.612V563ZM878.413 562V115.6H876.413V562H878.413ZM877.413 114.6H740.612V116.6H877.413V114.6ZM739.612 115.6V178.8H741.612V115.6H739.612ZM741.465 178.278C717.272 138.762 669.738 108.2 603.013 108.2V110.2C669.087 110.2 715.953 140.438 739.76 179.322L741.465 178.278ZM603.013 108.2C492.76 108.2 405.212 196.753 405.212 338H407.212C407.212 197.647 494.065 110.2 603.013 110.2V108.2ZM739.612 338.8C739.612 374.181 728.287 401.521 710.59 420.008C692.89 438.499 668.757 448.2 643.013 448.2V450.2C669.268 450.2 693.935 440.301 712.035 421.391C730.138 402.479 741.612 374.619 741.612 338.8H739.612ZM643.013 448.2C592.41 448.2 546.412 408.694 546.412 338H544.412C544.412 409.706 591.215 450.2 643.013 450.2V448.2ZM546.412 338C546.412 302.625 557.934 275.486 575.729 257.197C593.529 238.903 617.665 229.4 643.013 229.4V227.4C617.16 227.4 592.496 237.097 574.296 255.803C556.091 274.513 544.412 302.175 544.412 338H546.412ZM643.013 229.4C668.757 229.4 692.89 239.101 710.59 257.591C728.287 276.079 739.612 303.419 739.612 338.8H741.612C741.612 302.981 730.138 275.121 712.035 256.208C693.935 237.299 669.268 227.4 643.013 227.4V229.4ZM1225.18 562V563H1226.18V562H1225.18ZM1225.18 446H1226.18V445H1225.18V446ZM1134.78 229.2V228.2H1133.78V229.2H1134.78ZM1224.38 229.2V230.2H1225.38V229.2H1224.38ZM1224.38 115.6H1225.38V114.6H1224.38V115.6ZM1134.78 115.6H1133.78V116.6H1134.78V115.6ZM1134.78 6.79999H1135.78V5.79999H1134.78V6.79999ZM997.981 6.79999V5.79999H996.981V6.79999H997.981ZM997.981 115.6V116.6H998.981V115.6H997.981ZM943.581 115.6V114.6H942.581V115.6H943.581ZM943.581 229.2H942.581V230.2H943.581V229.2ZM997.981 229.2H998.981V228.2H997.981V229.2ZM996.981 406.8C996.981 464.985 1013.24 504.104 1041.32 528.653C1069.38 553.179 1109.06 563 1155.58 563V561C1109.3 561 1070.18 551.221 1042.64 527.147C1015.12 503.096 998.981 464.615 998.981 406.8H996.981ZM1155.58 563H1225.18V561H1155.58V563ZM1226.18 562V446H1224.18V562H1226.18ZM1225.18 445H1176.38V447H1225.18V445ZM1176.38 445C1161.26 445 1151.18 442.207 1144.86 436.366C1138.56 430.544 1135.78 421.487 1135.78 408.4H1133.78C1133.78 421.713 1136.6 431.456 1143.5 437.834C1150.38 444.193 1161.1 447 1176.38 447V445ZM1135.78 408.4V229.2H1133.78V408.4H1135.78ZM1134.78 230.2H1224.38V228.2H1134.78V230.2ZM1225.38 229.2V115.6H1223.38V229.2H1225.38ZM1224.38 114.6H1134.78V116.6H1224.38V114.6ZM1135.78 115.6V6.79999H1133.78V115.6H1135.78ZM1134.78 5.79999H997.981V7.79999H1134.78V5.79999ZM996.981 6.79999V115.6H998.981V6.79999H996.981ZM997.981 114.6H943.581V116.6H997.981V114.6ZM942.581 115.6V229.2H944.581V115.6H942.581ZM943.581 230.2H997.981V228.2H943.581V230.2ZM996.981 229.2V406.8H998.981V229.2H996.981ZM1663.78 432.4H1664.78V432.393L1664.78 432.386L1663.78 432.4ZM1534.98 261.2L1533.99 261.33L1534.1 262.2H1534.98V261.2ZM1661.38 261.2V262.2H1662.49L1662.38 261.1L1661.38 261.2ZM1412.58 415.6L1413.58 415.498L1413.48 414.6H1412.58V415.6ZM1277.38 415.6V414.6H1276.3L1276.38 415.674L1277.38 415.6ZM1664.78 432.386C1664.18 390.502 1648.5 362.18 1625.3 342.205C1602.14 322.27 1571.54 310.697 1541.15 302.137C1525.95 297.856 1510.77 294.319 1496.59 290.874C1482.39 287.424 1469.19 284.069 1457.9 280.143C1446.59 276.213 1437.29 271.742 1430.82 266.107C1424.39 260.504 1420.78 253.766 1420.78 245.2H1418.78C1418.78 254.434 1422.72 261.696 1429.51 267.615C1436.27 273.502 1445.86 278.074 1457.24 282.032C1468.64 285.994 1481.92 289.369 1496.12 292.817C1510.33 296.268 1525.46 299.794 1540.61 304.062C1570.93 312.603 1601.18 324.08 1623.99 343.72C1646.76 363.32 1662.19 391.098 1662.78 432.414L1664.78 432.386ZM1420.78 245.2C1420.78 234.711 1425.03 226.423 1433.16 220.718C1441.32 214.981 1453.49 211.8 1469.38 211.8V209.8C1453.27 209.8 1440.64 213.019 1432.01 219.082C1423.33 225.177 1418.78 234.089 1418.78 245.2H1420.78ZM1469.38 211.8C1488.41 211.8 1503.58 216.754 1514.46 225.384C1525.34 234.006 1532.02 246.361 1533.99 261.33L1535.97 261.07C1533.94 245.639 1527.03 232.794 1515.7 223.816C1504.39 214.846 1488.75 209.8 1469.38 209.8V211.8ZM1534.98 262.2H1661.38V260.2H1534.98V262.2ZM1662.38 261.1C1657.95 216.88 1639.65 178.63 1607.93 151.441C1576.21 124.254 1531.17 108.2 1473.38 108.2V110.2C1530.8 110.2 1575.35 126.146 1606.63 152.959C1637.91 179.77 1656.01 217.52 1660.39 261.299L1662.38 261.1ZM1473.38 108.2C1414.81 108.2 1369.17 123.847 1338.15 149.125C1307.12 174.413 1290.78 209.296 1290.78 247.6H1292.78C1292.78 209.904 1308.84 175.587 1339.41 150.675C1369.99 125.753 1415.15 110.2 1473.38 110.2V108.2ZM1290.78 247.6C1290.78 288.891 1306.11 316.671 1329.13 336.176C1352.11 355.636 1382.69 366.807 1413.12 375.065C1428.34 379.196 1443.57 382.608 1457.8 385.956C1472.05 389.308 1485.31 392.595 1496.66 396.484C1508.02 400.376 1517.37 404.841 1523.87 410.503C1530.34 416.132 1533.98 422.933 1533.98 431.6H1535.98C1535.98 422.267 1532.02 414.943 1525.19 408.994C1518.39 403.078 1508.75 398.512 1497.31 394.591C1485.85 390.667 1472.51 387.361 1458.26 384.009C1444 380.655 1428.82 377.254 1413.64 373.135C1383.27 364.893 1353.05 353.814 1330.43 334.649C1307.85 315.529 1292.78 288.309 1292.78 247.6H1290.78ZM1533.98 431.6C1533.98 441.26 1529.55 449.966 1520.8 456.289C1512.02 462.63 1498.84 466.6 1481.38 466.6V468.6C1499.12 468.6 1512.75 464.57 1521.97 457.911C1531.21 451.234 1535.98 441.94 1535.98 431.6H1533.98ZM1481.38 466.6C1444.13 466.6 1416.71 446.036 1413.58 415.498L1411.59 415.702C1414.85 447.564 1443.44 468.6 1481.38 468.6V466.6ZM1412.58 414.6H1277.38V416.6H1412.58V414.6ZM1276.38 415.674C1282.83 502.757 1363.44 569.4 1482.98 569.4V567.4C1364.13 567.4 1284.73 501.243 1278.38 415.526L1276.38 415.674ZM1482.98 569.4C1539.15 569.4 1584.58 554.757 1616 530.289C1647.43 505.808 1664.78 471.522 1664.78 432.4H1662.78C1662.78 470.878 1645.73 504.592 1614.77 528.711C1583.78 552.843 1538.82 567.4 1482.98 567.4V569.4ZM2091.48 0.399994H2092.48V-0.600006H2091.48V0.399994ZM1747.47 0.399994V-0.600006H1746.47V0.399994H1747.47ZM1747.47 562H1746.47V563H1747.47V562ZM2091.48 562V563H2092.48V562H2091.48ZM2091.48 452.4H2092.48V451.4H2091.48V452.4ZM1884.28 452.4H1883.28V453.4H1884.28V452.4ZM1884.28 329.2V328.2H1883.28V329.2H1884.28ZM2067.48 329.2V330.2H2068.48V329.2H2067.48ZM2067.48 223.6H2068.48V222.6H2067.48V223.6ZM1884.28 223.6H1883.28V224.6H1884.28V223.6ZM1884.28 110V109H1883.28V110H1884.28ZM2091.48 110V111H2092.48V110H2091.48ZM2091.48 -0.600006H1747.47V1.39999H2091.48V-0.600006ZM1746.47 0.399994V562H1748.47V0.399994H1746.47ZM1747.47 563H2091.48V561H1747.47V563ZM2092.48 562V452.4H2090.48V562H2092.48ZM2091.48 451.4H1884.28V453.4H2091.48V451.4ZM1885.28 452.4V329.2H1883.28V452.4H1885.28ZM1884.28 330.2H2067.48V328.2H1884.28V330.2ZM2068.48 329.2V223.6H2066.48V329.2H2068.48ZM2067.48 222.6H1884.28V224.6H2067.48V222.6ZM1885.28 223.6V110H1883.28V223.6H1885.28ZM1884.28 111H2091.48V109H1884.28V111ZM2092.48 110V0.399994H2090.48V110H2092.48ZM2497.89 115.6H2498.89V114.6H2497.89V115.6ZM2157.09 115.6V114.6H2156.09V115.6H2157.09ZM2157.09 228.4H2156.09V229.4H2157.09V228.4ZM2341.09 228.4L2341.86 229.037L2343.21 227.4H2341.09V228.4ZM2155.49 453.2L2154.72 452.563L2154.49 452.841V453.2H2155.49ZM2155.49 562H2154.49V563H2155.49V562ZM2501.89 562V563H2502.89V562H2501.89ZM2501.89 449.2H2502.89V448.2H2501.89V449.2ZM2308.29 449.2L2307.52 448.555L2306.14 450.2H2308.29V449.2ZM2497.89 224.4L2498.65 225.045L2498.89 224.765V224.4H2497.89ZM2497.89 114.6H2157.09V116.6H2497.89V114.6ZM2156.09 115.6V228.4H2158.09V115.6H2156.09ZM2157.09 229.4H2341.09V227.4H2157.09V229.4ZM2340.32 227.763L2154.72 452.563L2156.26 453.837L2341.86 229.037L2340.32 227.763ZM2154.49 453.2V562H2156.49V453.2H2154.49ZM2155.49 563H2501.89V561H2155.49V563ZM2502.89 562V449.2H2500.89V562H2502.89ZM2501.89 448.2H2308.29V450.2H2501.89V448.2ZM2309.05 449.845L2498.65 225.045L2497.12 223.755L2307.52 448.555L2309.05 449.845ZM2498.89 224.4V115.6H2496.89V224.4H2498.89ZM2782.76 394.8L2781.82 395.147L2782.77 397.694L2783.7 395.144L2782.76 394.8ZM2679.56 115.6L2680.5 115.253L2680.26 114.6H2679.56V115.6ZM2526.76 115.6V114.6H2525.26L2525.84 115.988L2526.76 115.6ZM2708.36 546.8L2709.27 547.211L2709.45 546.814L2709.28 546.412L2708.36 546.8ZM2605.96 774L2605.05 773.589L2604.42 775H2605.96V774ZM2753.16 774V775H2753.82L2754.08 774.391L2753.16 774ZM3033.16 115.6L3034.08 115.991L3034.67 114.6H3033.16V115.6ZM2885.16 115.6V114.6H2884.46L2884.22 115.256L2885.16 115.6ZM2783.7 394.453L2680.5 115.253L2678.62 115.947L2781.82 395.147L2783.7 394.453ZM2679.56 114.6H2526.76V116.6H2679.56V114.6ZM2525.84 115.988L2707.44 547.188L2709.28 546.412L2527.68 115.212L2525.84 115.988ZM2707.45 546.389L2605.05 773.589L2606.87 774.411L2709.27 547.211L2707.45 546.389ZM2605.96 775H2753.16V773H2605.96V775ZM2754.08 774.391L3034.08 115.991L3032.24 115.209L2752.24 773.609L2754.08 774.391ZM3033.16 114.6H2885.16V116.6H3033.16V114.6ZM2884.22 115.256L2781.82 394.456L2783.7 395.144L2886.1 115.944L2884.22 115.256Z" fill="black"/>
</svg>
