<svg width="110" height="28" viewBox="0 0 150 28" fill="none" xmlns="http://www.w3.org/2000/svg">
<path d="M14.6244 25H0.234764V0.0146484H14.6244V4.35547H5.53262V9.84131H13.9921V14.1821H5.53262V20.625H14.6244V25ZM30.8775 25L29.8692 22.4023H29.7325C28.8552 23.5075 27.9495 24.2765 27.0152 24.7095C26.0924 25.131 24.8847 25.3418 23.3922 25.3418C21.5579 25.3418 20.1109 24.8177 19.0514 23.7695C18.0032 22.7214 17.4791 21.2288 17.4791 19.292C17.4791 17.264 18.1855 15.7715 19.5982 14.8145C21.0224 13.846 23.1643 13.3105 26.024 13.208L29.3395 13.1055V12.2681C29.3395 10.3312 28.3482 9.36279 26.3658 9.36279C24.8391 9.36279 23.0447 9.82422 20.9825 10.7471L19.2564 7.22656C21.4553 6.07585 23.8935 5.50049 26.5709 5.50049C29.1344 5.50049 31.0997 6.05876 32.4669 7.17529C33.8341 8.29183 34.5177 9.98942 34.5177 12.2681V25H30.8775ZM29.3395 16.1475L27.3228 16.2158C25.8075 16.2614 24.6796 16.5348 23.9391 17.0361C23.1985 17.5374 22.8282 18.3008 22.8282 19.3262C22.8282 20.7959 23.6713 21.5308 25.3575 21.5308C26.5652 21.5308 27.5279 21.1833 28.2457 20.4883C28.9749 19.7933 29.3395 18.8704 29.3395 17.7197V16.1475ZM47.2503 21.189C48.1617 21.189 49.2555 20.9896 50.5315 20.5908V24.4702C49.2327 25.0513 47.6377 25.3418 45.7464 25.3418C43.6614 25.3418 42.1404 24.8177 41.1834 23.7695C40.2378 22.71 39.7649 21.1263 39.7649 19.0186V9.80713H37.2698V7.60254L40.1409 5.85938L41.6448 1.82617H44.9773V5.89355H50.3265V9.80713H44.9773V19.0186C44.9773 19.7591 45.1824 20.306 45.5926 20.6592C46.0141 21.0124 46.5667 21.189 47.2503 21.189ZM67.041 19.3262C67.041 21.2858 66.3574 22.7783 64.9902 23.8037C63.6344 24.8291 61.6007 25.3418 58.8892 25.3418C57.4992 25.3418 56.3143 25.245 55.3345 25.0513C54.3547 24.869 53.4375 24.5955 52.583 24.231V19.9243C53.5514 20.38 54.6395 20.7617 55.8472 21.0693C57.0662 21.377 58.1372 21.5308 59.0601 21.5308C60.9513 21.5308 61.897 20.9839 61.897 19.8901C61.897 19.48 61.7716 19.1496 61.521 18.8989C61.2703 18.6369 60.8374 18.3464 60.2222 18.0273C59.6069 17.6969 58.7866 17.3153 57.7612 16.8823C56.2915 16.2671 55.2091 15.6974 54.5142 15.1733C53.8306 14.6493 53.3293 14.0511 53.0103 13.3789C52.7026 12.6953 52.5488 11.8579 52.5488 10.8667C52.5488 9.16911 53.2039 7.85889 54.5142 6.93604C55.8358 6.00179 57.7043 5.53467 60.1196 5.53467C62.4211 5.53467 64.6598 6.03597 66.8359 7.03857L65.2637 10.7983C64.3066 10.3882 63.4123 10.0521 62.5806 9.79004C61.7489 9.52799 60.9001 9.39697 60.0342 9.39697C58.4961 9.39697 57.7271 9.81283 57.7271 10.6445C57.7271 11.1117 57.972 11.5161 58.4619 11.8579C58.9632 12.1997 60.0513 12.7067 61.7261 13.3789C63.2186 13.9827 64.3123 14.5467 65.0073 15.0708C65.7023 15.5949 66.215 16.1987 66.5454 16.8823C66.8758 17.5659 67.041 18.3805 67.041 19.3262ZM85.2082 25H70.8186V0.0146484H85.2082V4.35547H76.1164V9.84131H84.5759V14.1821H76.1164V20.625H85.2082V25ZM102.623 25H87.5331V21.9238L96.3856 9.87549H88.0629V5.89355H102.316V9.27734L93.7025 21.0181H102.623V25ZM102.983 5.89355H108.691L112.297 16.6431C112.605 17.5773 112.815 18.6825 112.929 19.9585H113.032C113.157 18.785 113.402 17.6799 113.767 16.6431L117.304 5.89355H122.893L114.809 27.4438C114.069 29.4377 113.009 30.9302 111.63 31.9214C110.263 32.9126 108.663 33.4082 106.828 33.4082C105.928 33.4082 105.045 33.3114 104.179 33.1177V28.9819C104.806 29.13 105.49 29.2041 106.23 29.2041C107.153 29.2041 107.956 28.9193 108.64 28.3496C109.335 27.7913 109.876 26.9425 110.263 25.8032L110.571 24.8633L102.983 5.89355Z" fill="#EF3340"/>
</svg>
